<svg xmlns="http://www.w3.org/2000/svg" width="1024" height="1024" viewBox="0 0 1024 1024">
<defs>
<linearGradient id="bg" x1="0" y1="0" x2="0" y2="1"><stop offset="0" stop-color="#9ccbe6"/><stop offset="1" stop-color="#6fa8cf"/></linearGradient>
<linearGradient id="rim" x1="0" y1="0" x2="0" y2="1"><stop offset="0" stop-color="#fff" stop-opacity="0.3"/><stop offset="0.5" stop-color="#fff" stop-opacity="0.05"/><stop offset="1" stop-color="#000" stop-opacity="0.08"/></linearGradient>
<clipPath id="sq"><rect x="100" y="100" width="824" height="824" rx="185"/></clipPath>
<filter id="drop" x="-10%" y="-10%" width="120%" height="130%"><feDropShadow dx="0" dy="14" stdDeviation="16" flood-color="#000" flood-opacity="0.35"/></filter>
<filter id="lift" x="-20%" y="-20%" width="140%" height="140%"><feDropShadow dx="0" dy="10" stdDeviation="10" flood-color="#000" flood-opacity="0.25"/></filter>
</defs>
<g filter="url(#drop)"><rect x="100" y="100" width="824" height="824" rx="185" fill="url(#bg)"/></g>
<g clip-path="url(#sq)">
<circle cx="760" cy="270" r="70" fill="#ffd56b"/>
<path d="M100 800 Q 512 730 924 800 V 924 H 100 Z" fill="#6ab28a"/>
<g filter="url(#lift)">
<path d="M300 500 L512 320 L724 500 V 790 H300 Z" fill="#f4efe6"/>
<path d="M260 520 L512 300 L764 520" fill="none" stroke="#d97757" stroke-width="56" stroke-linecap="round" stroke-linejoin="round"/>
</g>
<rect x="412" y="560" width="200" height="230" rx="30" fill="#1f1d1a"/>
<path d="M452 620 L 500 660 L 452 700" fill="none" stroke="#5fd39a" stroke-width="22" stroke-linecap="round" stroke-linejoin="round"/>
<rect x="512" y="686" width="50" height="18" rx="8" fill="#5fd39a"/>
</g>
<rect x="101.5" y="101.5" width="821" height="821" rx="183.5" fill="none" stroke="url(#rim)" stroke-width="3"/>
</svg>